# xmcd
#
# Track frame offsets:
#  150
#  12290
#  26225
#  41532
#  56490
#  70272
#  83857
#  97577
#  112135
#  125850
#  139307
#  151170
#  164035
#  177087
#  190022
#  202415
#
# Disc length: 2860 seconds
#
# Revision: 0
# Processed by: cddbd v1.5.1PL2 Copyright (c) Steve Scherf et al.
# Submitted via: Collectorz.com_Music_Collector 6.9
#
DISCID=e40b2a10
DTITLE=Merline Johnson - The Yas Yas Girl 1937-1947
DYEAR=1998
DGENRE=
TTITLE0=Love Shows Weakness
TTITLE1=New Muddy Water Blues
TTITLE2=He Roars Like A Lion
TTITLE3=I Drink Good Whiskey
TTITLE4=Working On The Project
TTITLE5=I'm Not Your Fool
TTITLE6=My Baby Left Me
TTITLE7=Got A Man In The 'Bama Mines
TTITLE8=I'd Rathe Drink Muddy Water No.2
TTITLE9=Black Gypsy Blues
TTITLE10=You Know It Ain't Right
TTITLE11=Patrol Wagon Blues
TTITLE12=Blues Everywhere
TTITLE13=Some Day I'll Be Gone Away
TTITLE14=You Don't Know My Mind
TTITLE15=Bad Whiskey Blues
EXTD=
EXTT0=
EXTT1=
EXTT2=
EXTT3=
EXTT4=
EXTT5=
EXTT6=
EXTT7=
EXTT8=
EXTT9=
EXTT10=
EXTT11=
EXTT12=
EXTT13=
EXTT14=
EXTT15=
PLAYORDER=
